# xmcd CD database file
#
# Track frame offsets:
#	150
#	10427
#	26445
#	38567
#	52377
#	68645
#	82907
#	99260
#	113057
#	127990
#	141607
#	152830
#
# Disc length: 2204 seconds
#
# Revision: 0
# Processed by: cddbd v1.5.2PL0 Copyright (c) Steve Scherf et al.
# Submitted via: CdAid (MTCDDB.DLL V2003.12.21)
#
DISCID=99089a0c
DTITLE=Sampaio and Cabral - Comigo Não Jacaré
DYEAR=1996
DGENRE=Folk
TTITLE0=Comigo não jacaré
TTITLE1=Tem que ser uma fera
TTITLE2=Beijo veneno
TTITLE3=Bem feito
TTITLE4=Ciúme da canção
TTITLE5=Na palma da mão
TTITLE6=Vai virar fumaça
TTITLE7=Arena da paixão
TTITLE8=Amargo prazer
TTITLE9=Pula e urra
TTITLE10=Nem aí
TTITLE11=Cheguei e gostei
EXTD=ID3G:  80 YEAR: 1996
EXTT0=
EXTT1=
EXTT2=
EXTT3=
EXTT4=
EXTT5=
EXTT6=
EXTT7=
EXTT8=
EXTT9=
EXTT10=
EXTT11=
PLAYORDER=
